

<svg display="none"
xmlns="http://www.w3.org/2000/svg">
<symbol id="github" viewBox="0 0 60 60" width="35px" height="35px">
<g>
 <path d="M17.791,46.836C18.502,46.53,19,45.823,19,45v-5.4c0-0.197,0.016-0.402,0.041-0.61C19.027,38.994,19.014,38.997,19,39 c0,0-3,0-3.6,0c-1.5,0-2.8-0.6-3.4-1.8c-0.7-1.3-1-3.5-2.8-4.7C8.9,32.3,9.1,32,9.7,32c0.6,0.1,1.9,0.9,2.7,2c0.9,1.1,1.8,2,3.4,2 c2.487,0,3.82-0.125,4.622-0.555C21.356,34.056,22.649,33,24,33v-0.025c-5.668-0.182-9.289-2.066-10.975-4.975 c-3.665,0.042-6.856,0.405-8.677,0.707c-0.058-0.327-0.108-0.656-0.151-0.987c1.797-0.296,4.843-0.647,8.345-0.714 c-0.112-0.276-0.209-0.559-0.291-0.849c-3.511-0.178-6.541-0.039-8.187,0.097c-0.02-0.332-0.047-0.663-0.051-0.999 c1.649-0.135,4.597-0.27,8.018-0.111c-0.079-0.5-0.13-1.011-0.13-1.543c0-1.7,0.6-3.5,1.7-5c-0.5-1.7-1.2-5.3,0.2-6.6 c2.7,0,4.6,1.3,5.5,2.1C21,13.4,22.9,13,25,13s4,0.4,5.6,1.1c0.9-0.8,2.8-2.1,5.5-2.1c1.5,1.4,0.7,5,0.2,6.6c1.1,1.5,1.7,3.2,1.6,5 c0,0.484-0.045,0.951-0.11,1.409c3.499-0.172,6.527-0.034,8.204,0.102c-0.002,0.337-0.033,0.666-0.051,0.999 c-1.671-0.138-4.775-0.28-8.359-0.089c-0.089,0.336-0.197,0.663-0.325,0.98c3.546,0.046,6.665,0.389,8.548,0.689 c-0.043,0.332-0.093,0.661-0.151,0.987c-1.912-0.306-5.171-0.664-8.879-0.682C35.112,30.873,31.557,32.75,26,32.969V33 c2.6,0,5,3.9,5,6.6V45c0,0.823,0.498,1.53,1.209,1.836C41.37,43.804,48,35.164,48,25C48,12.318,37.683,2,25,2S2,12.318,2,25 C2,35.164,8.63,43.804,17.791,46.836z"/>
</g>
</symbol>
<symbol id="linkedin" viewBox="0 0 50 50" width="50px" height="50px">
<g>
 <path d="M15,3C8.373,3,3,8.373,3,15c0,6.627,5.373,12,12,12s12-5.373,12-12C27,8.373,21.627,3,15,3z M10.496,8.403 c0.842,0,1.403,0.561,1.403,1.309c0,0.748-0.561,1.309-1.496,1.309C9.561,11.022,9,10.46,9,9.712C9,8.964,9.561,8.403,10.496,8.403z M12,20H9v-8h3V20z M22,20h-2.824v-4.372c0-1.209-0.753-1.488-1.035-1.488s-1.224,0.186-1.224,1.488c0,0.186,0,4.372,0,4.372H14v-8 h2.918v1.116C17.294,12.465,18.047,12,19.459,12C20.871,12,22,13.116,22,15.628V20z"/>
</g>
</symbol> 

<symbol id="telegram"  viewBox="6 6 60 60" width="35px" height="35px">

<g><path d="M32,10c12.15,0,22,9.85,22,22s-9.85,22-22,22s-22-9.85-22-22S19.85,10,32,10z M39.589,40.968	c0.404-1.241,2.301-13.615,2.534-16.054c0.071-0.738-0.163-1.229-0.619-1.449c-0.553-0.265-1.371-0.133-2.322,0.21	c-1.303,0.47-17.958,7.541-18.92,7.951c-0.912,0.388-1.775,0.81-1.775,1.423c0,0.431,0.256,0.673,0.96,0.924	c0.732,0.261,2.577,0.82,3.668,1.121c1.05,0.29,2.243,0.038,2.913-0.378c0.709-0.441,8.901-5.921,9.488-6.402	c0.587-0.48,1.056,0.135,0.576,0.616c-0.48,0.48-6.102,5.937-6.844,6.693c-0.901,0.917-0.262,1.868,0.343,2.249	c0.689,0.435,5.649,3.761,6.396,4.295c0.747,0.534,1.504,0.776,2.198,0.776C38.879,42.942,39.244,42.028,39.589,40.968z"/>
</g>
</symbol>
</svg>